<svg xmlns="http://www.w3.org/2000/svg" xmlns:xlink="http://www.w3.org/1999/xlink" width="836" height="209.68"><rect width="836" height="209.68" class="a" rx="0" ry="0"/><svg xmlns="http://www.w3.org/2000/svg" xmlns:xlink="http://www.w3.org/1999/xlink" width="800" height="173.68" x="18" y="18" viewBox="0 0 80 17.368"><style>@keyframes o{0%{transform:translateX(0)}3.2%{transform:translateX(-80px)}3.3%{transform:translateX(-160px)}3.4%{transform:translateX(-240px)}4.8%{transform:translateX(-480px)}5.9%{transform:translateX(-640px)}14.8%{transform:translateX(-800px)}16.9%{transform:translateX(-960px)}22.6%{transform:translateX(-1120px)}25.4%{transform:translateX(-1280px)}29.7%{transform:translateX(-1360px)}31.4%{transform:translateX(-1440px)}34.1%{transform:translateX(-1520px)}44.2%{transform:translateX(-1600px)}45.7%{transform:translateX(-1680px)}47.5%{transform:translateX(-1760px)}48.7%{transform:translateX(-1840px)}51.8%{transform:translateX(-1920px)}62.5%{transform:translateX(-2080px)}75.3%{transform:translateX(-2400px)}75.5%{transform:translateX(-2480px)}75.6%{transform:translateX(-2560px)}76.6%{transform:translateX(-2720px)}76.7%{transform:translateX(-2800px)}}.a{fill:#282d35}.c{fill:#b9c0cb}.d{fill:#a8cc8c}.e,.f{fill:#d290e4;font-weight:700}.f{fill:#a8cc8c}.g{fill:#f8f8f2}.h{fill:#bd93f9}.i{fill:#ffb86c}.j{fill:#f1fa8c}.l{fill:#e88388;font-weight:700}</style><g font-family="Monaco,Consolas,Menlo,'Bitstream Vera Sans Mono','Powerline Symbols',monospace" font-size="1.67"><defs><symbol id="1"><text y="1.67" class="c">Welcome</text><text x="8.016" y="1.67" class="c">to</text><text x="11.022" y="1.67" class="c">fish,</text><text x="17.034" y="1.67" class="c">the</text><text x="21.042" y="1.67" class="c">friendly</text><text x="30.06" y="1.67" class="c">interactive</text><text x="42.084" y="1.67" class="c">shell</text></symbol><symbol id="2"><text y="1.67" class="d">~/C/adventofcode2018</text><text x="21.042" y="1.67" class="c">(</text><text x="22.044" y="1.67" class="e">master</text><text x="28.056" y="1.67" class="c">|</text><text x="29.058" y="1.67" class="f">✔</text><text x="30.06" y="1.67" class="c">)</text><text x="32.064" y="1.67" class="c">$</text></symbol><symbol id="3"><text y="1.67" class="d">~/C/adventofcode2018</text><text x="21.042" y="1.67" class="c">(</text><text x="22.044" y="1.67" class="e">master</text><text x="28.056" y="1.67" class="c">|</text><text x="29.058" y="1.67" class="f">✔</text><text x="30.06" y="1.67" class="c">)</text><text x="32.064" y="1.67" class="c">$</text><text x="34.068" y="1.67" class="g">rg</text><text x="37.074" y="1.67" class="h">&apos;fn</text><text x="41.082" y="1.67" class="h">react&apos;</text></symbol><symbol id="4"><text y="1.67" class="d">~/C/adventofcode2018</text><text x="21.042" y="1.67" class="c">(</text><text x="22.044" y="1.67" class="e">master</text><text x="28.056" y="1.67" class="c">|</text><text x="29.058" y="1.67" class="f">✔</text><text x="30.06" y="1.67" class="c">)</text><text x="32.064" y="1.67" class="c">$</text><text x="34.068" y="1.67" class="g">rg</text><text x="37.074" y="1.67" class="i">&apos;fn</text><text x="41.082" y="1.67" class="h">react&apos;</text></symbol><symbol id="5"><text y="1.67" class="d">~/C/adventofcode2018</text><text x="21.042" y="1.67" class="c">(</text><text x="22.044" y="1.67" class="e">master</text><text x="28.056" y="1.67" class="c">|</text><text x="29.058" y="1.67" class="f">✔</text><text x="30.06" y="1.67" class="c">)</text><text x="32.064" y="1.67" class="c">$</text><text x="34.068" y="1.67" class="g">rg</text><text x="37.074" y="1.67" class="j">&apos;fn</text><text x="41.082" y="1.67" class="j">polar&apos;</text></symbol><symbol id="6"><text y="1.67" fill="#d290e4">src/five.rs</text></symbol><symbol id="7"><text y="1.67" class="d">34</text><text x="2.004" y="1.67" class="c">:</text><text x="3.006" y="1.67" class="l">fn</text><text x="6.012" y="1.67" class="l">polar</text><text x="11.022" y="1.67" class="c">_opposites(a:</text><text x="25.05" y="1.67" class="c">char,</text><text x="31.062" y="1.67" class="c">b:</text><text x="34.068" y="1.67" class="c">char)</text><text x="40.08" y="1.67" class="c">-&gt;</text><text x="43.086" y="1.67" class="c">bool</text><text x="48.096" y="1.67" class="c">{</text></symbol><symbol id="a"><path fill="transparent" d="M0 0h80v9H0z"/></symbol><symbol id="b"><path fill="#6f7683" d="M0 0h1.102v2.171H0z"/></symbol></defs><path d="M0 0h80v17.368H0z" class="a"/><g style="animation-duration:9.008491s;animation-iteration-count:infinite;animation-name:o;animation-timing-function:steps(1,end)"><svg width="3120"><svg><use xlink:href="#a"/><use x="-.004" xlink:href="#b"/></svg><svg x="80"><use xlink:href="#a"/><use x="-.004" xlink:href="#b"/></svg><svg x="160"><use xlink:href="#a"/><use x="-.004" y="2.146" xlink:href="#b"/><use xlink:href="#1"/></svg><svg x="240"><use xlink:href="#a"/><use x="-.004" y="2.146" xlink:href="#b"/><use xlink:href="#1"/></svg><svg x="320"><use xlink:href="#a"/><use x="-.004" y="2.146" xlink:href="#b"/><use xlink:href="#1"/></svg><svg x="400"><use xlink:href="#a"/><use x="-.004" y="4.317" xlink:href="#b"/><use xlink:href="#1"/></svg><svg x="480"><use xlink:href="#a"/><use x="33.996" y="4.317" xlink:href="#b"/><use xlink:href="#1"/><use y="4.342" xlink:href="#2"/></svg><svg x="560"><use xlink:href="#a"/><use x="-.004" y="4.317" xlink:href="#b"/><use xlink:href="#1"/><use y="4.342" xlink:href="#2"/></svg><svg x="640"><use xlink:href="#a"/><use x="33.996" y="4.317" xlink:href="#b"/><use xlink:href="#1"/><use y="4.342" xlink:href="#2"/></svg><svg x="720"><use xlink:href="#a"/><use x="34.996" y="4.317" xlink:href="#b"/><use xlink:href="#1"/><text y="6.012" class="d">~/C/adventofcode2018</text><text x="21.042" y="6.012" class="c">(</text><text x="22.044" y="6.012" class="e">master</text><text x="28.056" y="6.012" class="c">|</text><text x="29.058" y="6.012" class="f">✔</text><text x="30.06" y="6.012" class="c">)</text><text x="32.064" y="6.012" class="c">$</text><text x="34.068" y="6.012" class="i">r</text></svg><svg x="800"><use xlink:href="#a"/><use x="34.996" y="4.317" xlink:href="#b"/><use xlink:href="#1"/><text y="6.012" class="d">~/C/adventofcode2018</text><text x="21.042" y="6.012" class="c">(</text><text x="22.044" y="6.012" class="e">master</text><text x="28.056" y="6.012" class="c">|</text><text x="29.058" y="6.012" class="f">✔</text><text x="30.06" y="6.012" class="c">)</text><text x="32.064" y="6.012" class="c">$</text><text x="34.068" y="6.012" class="i">r</text><text x="35.07" y="6.012" class="h">g</text><text x="37.074" y="6.012" class="h">&apos;fn</text><text x="41.082" y="6.012" class="h">react&apos;</text></svg><svg x="880"><use xlink:href="#a"/><use x="35.996" y="4.317" xlink:href="#b"/><use xlink:href="#1"/><text y="6.012" class="d">~/C/adventofcode2018</text><text x="21.042" y="6.012" class="c">(</text><text x="22.044" y="6.012" class="e">master</text><text x="28.056" y="6.012" class="c">|</text><text x="29.058" y="6.012" class="f">✔</text><text x="30.06" y="6.012" class="c">)</text><text x="32.064" y="6.012" class="c">$</text><text x="34.068" y="6.012" class="i">rg</text><text x="37.074" y="6.012" class="h">&apos;fn</text><text x="41.082" y="6.012" class="h">react&apos;</text></svg><svg x="960"><use xlink:href="#a"/><use x="35.996" y="4.317" xlink:href="#b"/><use xlink:href="#1"/><use y="4.342" xlink:href="#3"/></svg><svg x="1040"><use xlink:href="#a"/><use x="36.996" y="4.317" xlink:href="#b"/><use xlink:href="#1"/><use y="4.342" xlink:href="#3"/></svg><svg x="1120"><use xlink:href="#a"/><use x="36.996" y="4.317" xlink:href="#b"/><use xlink:href="#1"/><use y="4.342" xlink:href="#3"/></svg><svg x="1200"><use xlink:href="#a"/><use x="37.996" y="4.317" xlink:href="#b"/><use xlink:href="#1"/><text y="6.012" class="d">~/C/adventofcode2018</text><text x="21.042" y="6.012" class="c">(</text><text x="22.044" y="6.012" class="e">master</text><text x="28.056" y="6.012" class="c">|</text><text x="29.058" y="6.012" class="f">✔</text><text x="30.06" y="6.012" class="c">)</text><text x="32.064" y="6.012" class="c">$</text><text x="34.068" y="6.012" class="g">rg</text><text x="37.074" y="6.012" class="c">&apos;</text><text x="38.076" y="6.012" class="h">fn</text><text x="41.082" y="6.012" class="h">react&apos;</text></svg><svg x="1280"><use xlink:href="#a"/><use x="37.996" y="4.317" xlink:href="#b"/><use xlink:href="#1"/><text y="6.012" class="d">~/C/adventofcode2018</text><text x="21.042" y="6.012" class="c">(</text><text x="22.044" y="6.012" class="e">master</text><text x="28.056" y="6.012" class="c">|</text><text x="29.058" y="6.012" class="f">✔</text><text x="30.06" y="6.012" class="c">)</text><text x="32.064" y="6.012" class="c">$</text><text x="34.068" y="6.012" class="g">rg</text><text x="37.074" y="6.012" class="i">&apos;</text><text x="38.076" y="6.012" class="h">fn</text><text x="41.082" y="6.012" class="h">react&apos;</text></svg><svg x="1360"><use xlink:href="#a"/><use x="38.996" y="4.317" xlink:href="#b"/><use xlink:href="#1"/><text y="6.012" class="d">~/C/adventofcode2018</text><text x="21.042" y="6.012" class="c">(</text><text x="22.044" y="6.012" class="e">master</text><text x="28.056" y="6.012" class="c">|</text><text x="29.058" y="6.012" class="f">✔</text><text x="30.06" y="6.012" class="c">)</text><text x="32.064" y="6.012" class="c">$</text><text x="34.068" y="6.012" class="g">rg</text><text x="37.074" y="6.012" class="i">&apos;f</text><text x="39.078" y="6.012" class="h">n</text><text x="41.082" y="6.012" class="h">react&apos;</text></svg><svg x="1440"><use xlink:href="#a"/><use x="39.996" y="4.317" xlink:href="#b"/><use xlink:href="#1"/><use y="4.342" xlink:href="#4"/></svg><svg x="1520"><use xlink:href="#a"/><use x="40.996" y="4.317" xlink:href="#b"/><use xlink:href="#1"/><use y="4.342" xlink:href="#4"/></svg><svg x="1600"><use xlink:href="#a"/><use x="41.996" y="4.317" xlink:href="#b"/><use xlink:href="#1"/><text y="6.012" class="d">~/C/adventofcode2018</text><text x="21.042" y="6.012" class="c">(</text><text x="22.044" y="6.012" class="e">master</text><text x="28.056" y="6.012" class="c">|</text><text x="29.058" y="6.012" class="f">✔</text><text x="30.06" y="6.012" class="c">)</text><text x="32.064" y="6.012" class="c">$</text><text x="34.068" y="6.012" class="g">rg</text><text x="37.074" y="6.012" class="i">&apos;fn</text><text x="41.082" y="6.012" class="i">p</text></svg><svg x="1680"><use xlink:href="#a"/><use x="42.996" y="4.317" xlink:href="#b"/><use xlink:href="#1"/><text y="6.012" class="d">~/C/adventofcode2018</text><text x="21.042" y="6.012" class="c">(</text><text x="22.044" y="6.012" class="e">master</text><text x="28.056" y="6.012" class="c">|</text><text x="29.058" y="6.012" class="f">✔</text><text x="30.06" y="6.012" class="c">)</text><text x="32.064" y="6.012" class="c">$</text><text x="34.068" y="6.012" class="g">rg</text><text x="37.074" y="6.012" class="i">&apos;fn</text><text x="41.082" y="6.012" class="i">po</text></svg><svg x="1760"><use xlink:href="#a"/><use x="43.996" y="4.317" xlink:href="#b"/><use xlink:href="#1"/><text y="6.012" class="d">~/C/adventofcode2018</text><text x="21.042" y="6.012" class="c">(</text><text x="22.044" y="6.012" class="e">master</text><text x="28.056" y="6.012" class="c">|</text><text x="29.058" y="6.012" class="f">✔</text><text x="30.06" y="6.012" class="c">)</text><text x="32.064" y="6.012" class="c">$</text><text x="34.068" y="6.012" class="g">rg</text><text x="37.074" y="6.012" class="i">&apos;fn</text><text x="41.082" y="6.012" class="i">pol</text></svg><svg x="1840"><use xlink:href="#a"/><use x="44.996" y="4.317" xlink:href="#b"/><use xlink:href="#1"/><text y="6.012" class="d">~/C/adventofcode2018</text><text x="21.042" y="6.012" class="c">(</text><text x="22.044" y="6.012" class="e">master</text><text x="28.056" y="6.012" class="c">|</text><text x="29.058" y="6.012" class="f">✔</text><text x="30.06" y="6.012" class="c">)</text><text x="32.064" y="6.012" class="c">$</text><text x="34.068" y="6.012" class="g">rg</text><text x="37.074" y="6.012" class="i">&apos;fn</text><text x="41.082" y="6.012" class="i">pola</text></svg><svg x="1920"><use xlink:href="#a"/><use x="45.996" y="4.317" xlink:href="#b"/><use xlink:href="#1"/><text y="6.012" class="d">~/C/adventofcode2018</text><text x="21.042" y="6.012" class="c">(</text><text x="22.044" y="6.012" class="e">master</text><text x="28.056" y="6.012" class="c">|</text><text x="29.058" y="6.012" class="f">✔</text><text x="30.06" y="6.012" class="c">)</text><text x="32.064" y="6.012" class="c">$</text><text x="34.068" y="6.012" class="g">rg</text><text x="37.074" y="6.012" class="i">&apos;fn</text><text x="41.082" y="6.012" class="i">polar</text></svg><svg x="2000"><use xlink:href="#a"/><use x="46.996" y="4.317" xlink:href="#b"/><use xlink:href="#1"/><text y="6.012" class="d">~/C/adventofcode2018</text><text x="21.042" y="6.012" class="c">(</text><text x="22.044" y="6.012" class="e">master</text><text x="28.056" y="6.012" class="c">|</text><text x="29.058" y="6.012" class="f">✔</text><text x="30.06" y="6.012" class="c">)</text><text x="32.064" y="6.012" class="c">$</text><text x="34.068" y="6.012" class="g">rg</text><text x="37.074" y="6.012" class="i">&apos;fn</text><text x="41.082" y="6.012" class="i">polar&apos;</text></svg><svg x="2080"><use xlink:href="#a"/><use x="46.996" y="4.317" xlink:href="#b"/><use xlink:href="#1"/><use y="4.342" xlink:href="#5"/></svg><svg x="2160"><use xlink:href="#a"/><use x="-.004" y="6.488" xlink:href="#b"/><use xlink:href="#1"/><use y="4.342" xlink:href="#5"/></svg><svg x="2240"><use xlink:href="#a"/><use x="-.004" y="6.488" xlink:href="#b"/><use xlink:href="#1"/><use y="4.342" xlink:href="#5"/></svg><svg x="2320"><use xlink:href="#a"/><use x="-.004" y="6.488" xlink:href="#b"/><use xlink:href="#1"/><use y="4.342" xlink:href="#5"/></svg><svg x="2400"><use xlink:href="#a"/><use x="-.004" y="6.488" xlink:href="#b"/><use xlink:href="#1"/><use y="4.342" xlink:href="#5"/></svg><svg x="2480"><use xlink:href="#a"/><use x="-.004" y="10.83" xlink:href="#b"/><use xlink:href="#1"/><use y="4.342" xlink:href="#5"/><use y="6.513" xlink:href="#6"/><use y="8.684" xlink:href="#7"/></svg><svg x="2560"><use xlink:href="#a"/><use x="-.004" y="10.83" xlink:href="#b"/><use xlink:href="#1"/><use y="4.342" xlink:href="#5"/><use y="6.513" xlink:href="#6"/><use y="8.684" xlink:href="#7"/></svg><svg x="2640"><use xlink:href="#a"/><use x="-.004" y="10.83" xlink:href="#b"/><use xlink:href="#1"/><use y="4.342" xlink:href="#5"/><use y="6.513" xlink:href="#6"/><use y="8.684" xlink:href="#7"/></svg><svg x="2720"><use xlink:href="#a"/><use x="-.004" y="10.83" xlink:href="#b"/><use xlink:href="#1"/><use y="4.342" xlink:href="#5"/><use y="6.513" xlink:href="#6"/><use y="8.684" xlink:href="#7"/></svg><svg x="2800"><use xlink:href="#a"/><use x="33.996" y="13.001" xlink:href="#b"/><use xlink:href="#1"/><use y="4.342" xlink:href="#5"/><use y="6.513" xlink:href="#6"/><use y="8.684" xlink:href="#7"/><use y="13.026" xlink:href="#2"/></svg><svg x="2880"><use xlink:href="#a"/><use x="-.004" y="15.172" xlink:href="#b"/><use xlink:href="#1"/><use y="4.342" xlink:href="#5"/><use y="6.513" xlink:href="#6"/><use y="8.684" xlink:href="#7"/><use y="13.026" xlink:href="#2"/></svg><svg x="2960"><use xlink:href="#a"/><use x="-.004" y="15.172" xlink:href="#b"/><use xlink:href="#1"/><use y="4.342" xlink:href="#5"/><use y="6.513" xlink:href="#6"/><use y="8.684" xlink:href="#7"/><use y="13.026" xlink:href="#2"/></svg><svg x="3040"><use xlink:href="#a"/><use x="-.004" y="15.172" xlink:href="#b"/><use xlink:href="#1"/><use y="4.342" xlink:href="#5"/><use y="6.513" xlink:href="#6"/><use y="8.684" xlink:href="#7"/><use y="13.026" xlink:href="#2"/></svg></svg></g></g></svg></svg>